<svg width="478" height="110" viewBox="0 0 478 110" fill="none" xmlns="http://www.w3.org/2000/svg">
<g clip-path="url(#clip0_1_19)">
<path d="M62.1917 7.34568C57.16 2.60612 50.0493 0 42.1669 0H3.42463C1.53056 0 0 1.53301 0 3.43011V104.008C0 105.899 1.53056 107.439 3.42463 107.439H30.4135C32.3012 107.439 33.8381 105.906 33.8381 104.008V72.0963H42.1733C50.0557 72.0963 57.1664 69.4838 62.1981 64.7506C67.5168 59.7428 70.3228 52.742 70.3228 44.5084V27.5942C70.3228 19.3607 67.5104 12.3599 62.1981 7.35207L62.1917 7.34568ZM33.8317 27.2429H37.0459C37.8176 27.2429 38.0599 27.3962 38.0599 27.3962C38.1237 27.4665 38.2959 27.8817 38.2959 28.7951V45.1025C38.2959 46.661 37.9834 46.6611 37.0459 46.6611H33.8317V27.2429Z" fill="white"/>
<path d="M148.011 0H121.928C120.04 0 118.504 1.53301 118.504 3.43011V78.9373C118.504 80.745 116.029 80.7961 115.742 80.7961C114.894 80.7961 113.287 80.4065 113.287 78.9373V3.43011C113.287 1.5394 111.756 0 109.862 0H82.5737C80.686 0 79.149 1.53301 79.149 3.43011V79.0906C79.149 96.4264 95.2199 110 115.742 110C136.264 110 151.43 96.7139 151.43 79.0906V3.43011C151.43 1.5394 149.899 0 148.005 0H148.011Z" fill="white"/>
<path d="M205.605 0H165.951C164.063 0 162.526 1.53301 162.526 3.43011V104.008C162.526 105.899 164.057 107.439 165.951 107.439H205.605C221.644 107.439 232.849 97.1482 232.849 82.4185V70.1864C232.849 62.3744 230.222 56.6129 225.024 52.9592C230.075 49.3949 232.849 43.3459 232.849 35.4509V25.0328C232.849 10.2967 221.644 0.00638755 205.605 0.00638755V0ZM196.364 65.9003H199.579C200.516 65.9003 200.829 65.9004 200.829 67.4589V78.784C200.829 79.7038 200.656 80.1126 200.605 80.1765C200.605 80.1765 200.363 80.3362 199.579 80.3362H196.364V65.9003ZM196.364 41.6788V27.2429H199.579C200.35 27.2429 200.593 27.3962 200.593 27.3962C200.656 27.4665 200.829 27.8817 200.829 28.7951V40.1202C200.829 41.6788 200.516 41.6788 199.579 41.6788H196.364Z" fill="white"/>
<path d="M302.413 45.0961L318.688 4.71401C319.115 3.66007 318.988 2.45921 318.35 1.51385C317.712 0.568492 316.647 0 315.512 0H289.129C287.681 0 286.393 0.907032 285.908 2.27397L277.178 26.7127V3.43011C277.178 1.5394 275.647 0 273.753 0H246.764C244.877 0 243.34 1.53301 243.34 3.43011V104.008C243.34 105.899 244.87 107.439 246.764 107.439H273.753C275.641 107.439 277.178 105.906 277.178 104.008V79.6783L278.632 76.4462L286.897 104.967C287.324 106.429 288.663 107.439 290.181 107.439H317.47C318.56 107.439 319.587 106.915 320.231 106.033C320.875 105.152 321.06 104.015 320.735 102.974L302.413 45.1025V45.0961Z" fill="white"/>
<path d="M388.188 0H330.741C328.853 0 327.316 1.53301 327.316 3.43011V104.008C327.316 105.899 328.847 107.439 330.741 107.439H388.188C390.076 107.439 391.613 105.906 391.613 104.008V80.7514C391.613 78.8607 390.082 77.3213 388.188 77.3213H361.155V65.4532H377.481C379.368 65.4532 380.905 63.9202 380.905 62.0231V42.9946C380.905 41.1039 379.375 39.5645 377.481 39.5645H361.155V28.7504H388.188C390.076 28.7504 391.613 27.2173 391.613 25.3202V3.43011C391.613 1.5394 390.082 0 388.188 0Z" fill="white"/>
<path d="M477.432 1.5394C476.801 0.581267 475.723 0 474.575 0H447.886C446.368 0 445.029 1.00285 444.602 2.46559L437.899 25.4033L430.336 2.35701C429.877 0.951745 428.563 0 427.083 0H399.342C398.2 0 397.142 0.568492 396.504 1.51385C395.866 2.45921 395.745 3.66007 396.172 4.71401L419.443 62.2339V104.002C419.443 105.893 420.974 107.432 422.868 107.432H449.857C451.745 107.432 453.281 105.899 453.281 104.002V62.2658L477.732 4.7715C478.185 3.71117 478.07 2.49753 477.439 1.5394H477.432Z" fill="white"/>
</g>
<defs>
<clipPath id="clip0_1_19">
<rect width="478" height="110" fill="white"/>
</clipPath>
</defs>
</svg>
