<svg width="304" height="110" viewBox="0 0 304 110" fill="none" xmlns="http://www.w3.org/2000/svg">
<g clip-path="url(#clip0_1_26)">
<path d="M19.3133 0C13.3214 0.216657 5.3073 0.718064 1.1696 1.91277C0.441612 2.12324 -0.043713 2.81655 -0.00015818 3.57175C1.74203 30.8891 1.95359 81.556 0.429168 105.865C0.398057 106.317 0.559832 106.756 0.87716 107.078C1.19449 107.4 1.63626 107.567 2.07803 107.58C2.17136 107.58 11.2992 107.443 20.7257 107.864C20.7506 107.864 20.7755 107.864 20.8004 107.864C21.2297 107.864 21.6404 107.697 21.9452 107.4C22.2688 107.084 22.443 106.645 22.4243 106.199C22.0821 96.0473 21.8581 86.4586 21.7275 76.9443C35.0117 76.511 42.9324 72.4007 45.9377 64.372C50.0692 52.7591 50.2745 31.2606 46.4044 16.4474C43.2062 4.30219 36.1317 0 19.3133 0ZM21.5408 25.9246C25.6225 25.8194 26.2385 27.076 26.4749 29.5273C27.3274 38.5588 26.7238 50.6173 25.6598 54.61C25.2305 56.3309 23.8492 57.2594 21.547 57.3956C21.4288 45.789 21.4288 34.7395 21.547 25.9308L21.5408 25.9246Z" fill="black"/>
<path d="M100.674 2.70512C100.699 2.24086 100.524 1.78897 100.195 1.46708C99.8649 1.139 99.4107 0.978056 98.9441 1.00282C98.8569 1.00282 89.8535 1.55994 77.9071 1.28757C77.4529 1.269 77.0049 1.46089 76.6876 1.79516C76.3702 2.12944 76.2147 2.58132 76.252 3.03321C78.3613 28.6359 79.3879 51.5892 79.6804 79.7732C79.6804 82.2803 79.1453 85.2763 76.5818 85.2763C76.5569 85.2763 76.532 85.2763 76.5133 85.2763C75.3747 85.3258 73.6698 85.4001 73.3401 77.9966C72.3196 53.9291 72.6432 30.5673 74.3418 6.574C74.3729 6.11593 74.2112 5.67023 73.8938 5.34215C73.5765 5.01407 73.1285 4.82218 72.6743 4.84694C66.9126 5.00788 56.1484 4.02364 52.9875 3.71413C52.5209 3.66461 52.0604 3.82555 51.7182 4.14125C51.376 4.45695 51.1893 4.90884 51.208 5.3731C51.9982 29.9297 51.6933 52.821 51.4196 73.0197L51.3511 78.04C51.1707 91.7451 53.112 99.6252 57.8408 104.392C61.6363 108.217 67.2299 110 75.4431 110C93.929 110 101.246 102.528 101.532 83.3573C101.713 72.9392 101.321 61.9578 100.904 50.3326C100.338 34.529 99.7591 18.1868 100.668 2.71131L100.674 2.70512Z" fill="black"/>
<path d="M152.902 33.6438C152.902 20.3844 151.309 12.5909 147.576 7.5892C143.656 2.3399 137.21 0 126.67 0C119.913 0 111.363 1.56612 104.37 4.07935C103.71 4.31458 103.275 4.95217 103.3 5.65166C104.32 36.8875 104.295 74.3692 104.158 103.531C104.158 104.268 104.656 104.918 105.378 105.104C113.883 107.295 119.937 108.143 126.962 108.143C144.546 108.143 152.05 100.04 152.05 81.0484C152.05 69.8008 148.914 62.4778 142.71 59.2032C149.642 55.4209 152.908 47.1632 152.908 33.6438H152.902ZM129.333 70.6984C130.876 72.085 131.623 74.6292 131.623 78.4856C131.623 82.3421 130.975 84.6078 129.588 85.8706C128.53 86.83 126.856 87.2696 124.504 87.2138C124.274 81.7107 124.025 75.4958 123.882 69.1818C126.34 69.1075 128.132 69.6213 129.333 70.7046V70.6984ZM123.876 49.3236C124.001 40.5892 124.137 31.6629 124.38 23.6714C126.975 23.4052 128.754 23.7456 129.924 24.7299C131.691 26.2279 132.481 29.5025 132.481 35.3523C132.481 46.2532 129.812 48.8779 123.876 49.3236Z" fill="black"/>
<path d="M205.772 85.2392C205.635 78.9809 205.492 72.5059 204.975 67.2319C204.253 59.7046 201.41 55.1176 195.704 52.6663C200.601 50.2707 203.588 45.8447 204.26 39.7845C204.645 35.8847 204.745 30.6911 204.851 25.1942C204.981 18.3107 205.118 11.1919 205.828 5.96119C205.89 5.49073 205.747 5.01408 205.423 4.66124C205.1 4.3084 204.645 4.12269 204.166 4.12888C194.939 4.40744 184.585 3.43558 184.479 3.4232C184.007 3.37987 183.54 3.54081 183.204 3.8627C182.868 4.1846 182.681 4.64267 182.706 5.11313C183.241 15.2217 183.179 28.7226 182.563 37.9522C182.277 42.4029 181.176 42.7682 179.39 42.8486C179.371 42.8486 179.346 42.8486 179.328 42.8486C178.649 42.9043 177.816 42.8177 177.131 42.7001C176.571 33.8047 176.951 14.3551 177.934 2.74228C177.971 2.26563 177.803 1.79518 177.461 1.4609C177.119 1.12663 176.652 0.953307 176.173 0.996638C176.073 1.00283 166.379 1.8447 155.976 1.98707C155.534 1.98707 155.117 2.17278 154.819 2.49467C154.52 2.81656 154.358 3.23749 154.377 3.67081C155.684 35.3028 155.621 81.4508 154.234 104.435C154.209 104.881 154.364 105.314 154.676 105.642C154.987 105.97 155.41 106.15 155.858 106.15C165.57 106.15 176.409 106.713 176.521 106.719C176.988 106.75 177.448 106.564 177.778 106.224C178.108 105.884 178.27 105.419 178.22 104.955C177.144 93.6021 176.347 74.8458 176.938 64.341C177.056 62.2735 177.778 61.9392 179.253 62.0197C180.97 62.094 181.96 62.8306 182.283 66.52C182.974 74.7592 183.571 93.9674 182.856 107.153C182.831 107.623 183.011 108.081 183.353 108.409C183.658 108.7 184.056 108.855 184.473 108.855C184.529 108.855 184.585 108.855 184.635 108.849C194.31 107.871 205.249 107.858 205.361 107.858C205.834 107.858 206.288 107.654 206.599 107.289C206.91 106.93 207.041 106.453 206.966 105.983C206.114 100.659 205.94 92.816 205.772 85.2268V85.2392Z" fill="black"/>
<path d="M249.557 83.3202C249.177 83.0355 248.692 82.924 248.225 83.0293C243.614 84.0321 237.33 84.6882 233.622 84.5583C231.232 84.453 230.753 84.0197 230.436 81.6922C230.075 78.9561 229.907 74.0473 230.187 70.2094C237.517 69.1508 245.481 69.1384 245.568 69.1384C246.01 69.1384 246.433 68.9589 246.738 68.6432C247.043 68.3275 247.205 67.9004 247.192 67.4609C246.912 60.3298 247.049 51.9792 247.049 51.8925C247.055 51.4406 246.875 51.0073 246.551 50.6978C246.221 50.3883 245.78 50.2274 245.332 50.2521C240.765 50.5307 234.785 50.1036 231.998 49.3174C229.72 48.6736 228.992 47.7203 228.88 45.2195C228.576 40.3725 228.632 34.3557 229.017 30.2639C229.272 27.9674 229.895 27.2617 231.935 26.9893C235.725 26.4322 242.675 26.5931 247.883 27.0017C248.331 27.0326 248.773 26.8841 249.102 26.587C249.432 26.2836 249.625 25.8627 249.631 25.4108C249.774 14.3737 249.208 4.7479 249.202 4.65504C249.152 3.83794 248.499 3.18797 247.677 3.13844C236.521 2.4699 223.393 2.51942 210.706 3.28082C209.891 3.33034 209.237 3.97412 209.181 4.78504C207.551 29.5583 207.209 68.9465 208.466 87.4243C209.212 98.5605 212.317 108.861 229.832 108.861C235.302 108.861 243.042 107.926 249.084 106.54C249.793 106.379 250.309 105.76 250.34 105.029C250.77 94.8216 250.204 84.614 250.197 84.5149C250.172 84.0445 249.936 83.605 249.557 83.3202Z" fill="black"/>
<path d="M303.558 47.5222C303.191 34.0833 302.812 20.1925 303.428 6.24592C303.446 5.78785 303.272 5.34215 302.936 5.02026C302.606 4.69837 302.152 4.53742 301.692 4.56218C295.793 4.97074 288.395 4.8655 281.918 4.27743C281.432 4.2341 280.96 4.40743 280.617 4.74789C280.275 5.08835 280.107 5.565 280.157 6.04783C281.576 20.2915 281.874 32.7772 281.152 47.8008C280.916 52.2454 280.219 53.2172 279.69 53.2482C278.352 53.3163 277.096 53.3782 276.816 48.5127C275.814 29.2487 275.976 16.0822 277.382 3.07653C277.432 2.5937 277.264 2.11086 276.921 1.76421C276.579 1.41756 276.1 1.24423 275.609 1.29375C268.845 1.94992 263.04 2.15419 254.908 1.99944C254.453 2.01801 254.018 2.17276 253.7 2.50084C253.389 2.82893 253.228 3.26843 253.252 3.72032C254.31 20.0872 254.497 35.7237 253.825 51.5273C253.389 62.5644 256.451 69.2746 262.934 71.4845C267.837 73.1559 276.903 72.7969 282.503 71.7693C283.255 80.6089 279.883 82.3731 276.778 82.8869C271.477 83.7845 263.786 83.1221 257.645 81.2279C257.172 81.0855 256.656 81.1598 256.245 81.4384C255.835 81.7169 255.58 82.1688 255.542 82.6579C255.542 82.7198 255.094 89.0523 253.402 102.788C253.308 103.531 253.744 104.237 254.447 104.497C260.974 106.917 270.886 108.013 277.332 108.013C296.72 108.013 302.917 101.897 303.851 81.816C304.18 70.6488 303.876 59.4198 303.552 47.5284L303.558 47.5222Z" fill="black"/>
</g>
<defs>
<clipPath id="clip0_1_26">
<rect width="304" height="110" fill="white"/>
</clipPath>
</defs>
</svg>
