<svg width="460" height="110" viewBox="0 0 460 110" fill="none" xmlns="http://www.w3.org/2000/svg">
<g clip-path="url(#clip0_1_46)">
<path d="M72.8008 37.3555C72.8008 25.2337 68.6849 15.5952 60.5399 8.7354C53.6628 2.93495 43.0691 0 29.0543 0H1.58036C0.71203 0 0 0.71203 0 1.58036V106.579C0 107.447 0.71203 108.159 1.58036 108.159H29.94C30.8083 108.159 31.5204 107.447 31.5204 106.579V73.7559H34.3685C45.2747 73.7559 53.8017 71.5156 59.7411 67.1045C68.4244 60.5573 72.8181 50.5542 72.8181 37.3555H72.8008ZM40.9331 36.7998C40.9331 40.0821 40.0821 42.5482 38.3107 44.3716C36.6088 46.1257 34.3511 47.0114 31.503 47.0461V26.0673H31.9024C34.5248 26.0673 36.6261 27.0224 38.3281 29.0022C40.0821 30.982 40.9331 33.5349 40.9331 36.7998Z" fill="white"/>
<path d="M89.9416 102.48C96.7667 107.464 105.294 110 115.279 110C124.154 110 131.812 107.708 138.047 103.158C142.684 99.7537 146.053 95.8636 148.05 91.6435C150.099 87.5797 151.141 82.2655 151.141 75.8399V1.58036C151.141 0.71203 150.429 0 149.561 0H121.201C120.333 0 119.621 0.71203 119.621 1.58036V69.3795C119.621 74.8848 118.874 77.3508 118.284 78.4449C117.537 79.7127 116.148 80.3205 113.994 80.3205C111.268 80.3205 110.261 79.1396 109.757 78.2539C109.097 77.125 108.298 74.659 108.298 69.3274V1.58036C108.298 0.71203 107.586 0 106.718 0H78.3581C77.4897 0 76.7777 0.71203 76.7777 1.58036V71.8282C76.7777 85.7562 81.2062 96.072 89.9416 102.48Z" fill="white"/>
<path d="M161.457 108.159H201.175C211.021 108.159 219.097 105.224 225.175 99.4411C231.323 93.6754 234.449 85.9646 234.449 76.5346C234.449 68.9975 232.556 63.1102 228.84 59.0117C226.408 56.3372 223.074 54.288 218.854 52.8639C227.902 49.8769 232.469 42.6697 232.469 31.3641C232.469 22.1077 229.256 14.4316 222.918 8.5791C216.7 2.88285 207.131 0 194.436 0H161.457C160.589 0 159.877 0.71203 159.877 1.58036V106.579C159.877 107.447 160.589 108.159 161.457 108.159ZM191.397 65.2463H192.057C195.322 65.2463 197.91 66.0104 199.716 67.5213C201.47 68.9801 202.321 70.9946 202.321 73.6517C202.321 76.3088 201.47 78.3928 199.698 79.9384C197.875 81.5535 195.444 82.335 192.283 82.335C192.057 82.335 191.762 82.335 191.415 82.3003V65.2289L191.397 65.2463ZM198.795 38.7796C197.128 40.1342 194.749 40.8115 191.727 40.8115H191.397V25.8589C191.397 25.8589 191.553 25.8589 191.623 25.8589C192.074 25.8415 192.439 25.8241 192.734 25.8241C198.552 25.8241 201.157 28.1512 201.157 33.3612C201.157 35.7404 200.376 37.5118 198.795 38.797V38.7796Z" fill="white"/>
<path d="M242.177 108.159H270.537C270.954 108.159 271.37 107.985 271.666 107.69C271.961 107.395 272.135 106.978 272.117 106.561L271.509 66.9482L287.157 107.169C287.4 107.777 287.973 108.177 288.633 108.177H319.233C319.771 108.177 320.275 107.899 320.57 107.447C320.865 106.996 320.9 106.422 320.674 105.936L295.545 52.2561L317.895 2.25766C318.121 1.77139 318.069 1.19829 317.774 0.746762C317.479 0.29523 316.975 0.0173645 316.454 0.0173645H286.531C285.871 0.0173645 285.281 0.434163 285.055 1.04199L271.544 37.4076L272.134 1.61509C272.134 1.19829 271.978 0.781495 271.683 0.486263C271.388 0.19103 270.988 0.0173645 270.554 0.0173645H242.195C241.326 0.0173645 240.614 0.729395 240.614 1.59772V106.596C240.614 107.464 241.326 108.177 242.195 108.177L242.177 108.159Z" fill="white"/>
<path d="M324.599 108.159H377.307C378.175 108.159 378.887 107.447 378.887 106.579V81.3451C378.887 80.4768 378.175 79.7648 377.307 79.7648H354.539V66.8787H374.788C375.657 66.8787 376.369 66.1667 376.369 65.2984V41.5583C376.369 40.6899 375.657 39.9779 374.788 39.9779H354.539V27.8386H377.307C378.175 27.8386 378.887 27.1266 378.887 26.2583V4.67161L403.739 62.4329V106.579C403.739 107.447 404.451 108.159 405.319 108.159H433.679C434.547 108.159 435.259 107.447 435.259 106.579V62.4155L459.555 2.17082C459.746 1.68456 459.694 1.12883 459.398 0.694664C459.103 0.260499 458.617 0 458.096 0H428.712C428.034 0 427.427 0.434165 427.218 1.0941L422.06 16.7935C421.47 18.5302 420.792 20.7704 419.994 23.6533C419.629 24.9558 419.247 26.3625 418.83 27.8734C418.622 27.0919 418.396 26.293 418.17 25.5115C417.371 22.6981 416.468 19.7285 415.461 16.6719L410.355 1.0941C410.147 0.451531 409.539 0 408.844 0H379.269C378.904 0 378.557 0.138933 378.262 0.364698C377.984 0.138933 377.654 0 377.289 0H324.582C323.713 0 323.001 0.71203 323.001 1.58036V106.579C323.001 107.447 323.713 108.159 324.582 108.159H324.599Z" fill="white"/>
</g>
<defs>
<clipPath id="clip0_1_46">
<rect width="459.676" height="110" fill="white"/>
</clipPath>
</defs>
</svg>
