<svg width="461" height="110" viewBox="0 0 461 110" fill="none" xmlns="http://www.w3.org/2000/svg">
<g clip-path="url(#clip0_6_480)">
<path d="M61.4167 12.2222V55L49.1944 67.2222H15.2778V110H0V0H49.1944L61.4167 12.2222ZM15.2778 15.2778V51.9444H46.1389V15.2778H15.2778Z" fill="black"/>
<path d="M140.528 97.7778L128.306 110H91.639L79.4167 97.7778V0H94.6945V94.7222H125.25V0H140.528V97.7778Z" fill="black"/>
<path d="M219.792 12.2222V47.3611L212.153 55L219.792 62.6389V97.7778L207.569 110H158.528V0H207.569L219.792 12.2222ZM173.806 15.2778V47.3611H204.514V15.2778H173.806ZM173.806 62.6389V94.7222H204.514V62.6389H173.806Z" fill="black"/>
<path d="M299.82 18.0278L277.056 55L299.82 91.9722V110H284.542V96.25L263.458 62.6389H253.07V110H237.792V0H253.07V47.3611H263.458L284.542 13.75V0H299.82V18.0278Z" fill="black"/>
<path d="M378.931 15.2778H333.097V47.3611H371.292V62.6389H333.097V94.7222H378.931V110H317.82V0H378.931V15.2778Z" fill="black"/>
<path d="M461.097 0V18.0278L436.653 55V110H421.375V55L396.931 18.0278V0H412.208V13.75L428.708 38.9583H429.32L445.82 13.75V0H461.097Z" fill="black"/>
</g>
<defs>
<clipPath id="clip0_6_480">
<rect width="461" height="110" fill="white"/>
</clipPath>
</defs>
</svg>
