<svg width="608" height="110" viewBox="0 0 608 110" fill="none" xmlns="http://www.w3.org/2000/svg">
<g clip-path="url(#clip0_1_419)">
<path d="M45.034 68.6779H22.2636V107.239H0V0H46.7106C57.4798 0 66.0655 2.76053 72.4678 8.28938C78.87 13.8182 82.0672 22.3805 82.0672 33.9763C82.0672 46.6326 78.87 55.5849 72.4678 60.8174C66.0655 66.0577 56.9261 68.6701 45.0418 68.6701L45.034 68.6779ZM55.5147 46.3441C58.4234 43.7707 59.8816 39.7001 59.8816 34.1167C59.8816 28.5332 58.4156 24.564 55.4835 22.1934C52.5514 19.815 48.434 18.6297 43.1547 18.6297H22.2792V50.2042H43.1547C48.4418 50.2042 52.567 48.9175 55.5225 46.3519L55.5147 46.3441Z" fill="black"/>
<path d="M162.31 65.9095V0H185.08V65.9095C185.08 77.3104 183.31 86.1846 179.77 92.5401C173.172 104.183 160.586 110 142.011 110C123.436 110 110.827 104.183 104.183 92.5401C100.642 86.1924 98.8721 77.3104 98.8721 65.9095V0H121.643V65.9095C121.643 73.2787 122.516 78.6672 124.263 82.0672C126.976 88.0795 132.895 91.0896 142.011 91.0896C151.127 91.0896 156.976 88.0795 159.689 82.0672C161.436 78.675 162.31 73.2865 162.31 65.9095Z" fill="black"/>
<path d="M255.435 107.232H206.837V0H258.928C272.076 0.187154 281.387 4.00042 286.869 11.4242C290.167 15.9861 291.813 21.437 291.813 27.7924C291.813 34.1479 290.159 39.5988 286.869 43.5758C285.021 45.806 282.307 47.8413 278.72 49.6895C284.202 51.678 288.335 54.8284 291.126 59.1486C293.918 63.4687 295.314 68.7013 295.314 74.8618C295.314 81.0223 293.715 86.9176 290.51 91.963C288.475 95.3084 285.925 98.1235 282.868 100.401C279.422 103.021 275.359 104.822 270.68 105.789C266.001 106.756 260.917 107.239 255.442 107.239L255.435 107.232ZM266.056 39.5754C268.964 37.8286 270.423 34.6937 270.423 30.1864C270.423 25.1957 268.481 21.8971 264.605 20.2985C261.26 19.1833 256.986 18.6219 251.801 18.6219H228.227V42.2657H254.561C259.263 42.2657 263.1 41.3689 266.056 39.5754ZM254.928 60.022H228.227V88.6098H254.561C259.263 88.6098 262.929 87.9782 265.549 86.7227C270.298 84.391 272.676 79.9305 272.676 73.3333C272.676 67.7577 270.376 63.9288 265.767 61.8389C263.194 60.677 259.583 60.0766 254.928 60.022Z" fill="black"/>
<path d="M409.088 107.232H380.282L347.179 60.3807L336.48 71.3682V107.232H314.435V0H336.48V44.1606L377.88 0H406.835L362.892 44.1606L409.088 107.232Z" fill="black"/>
<path d="M496.318 60.3807H444.227V87.9548H503.594V107.232H422.33V0H500.973V18.9884H444.227V41.7588H496.318V60.3807Z" fill="black"/>
<path d="M607.628 0L571.757 66.9311V107.239H549.353V66.9311L512.25 0H538.662L560.925 46.7028L582.237 0H607.628Z" fill="black"/>
</g>
<defs>
<clipPath id="clip0_1_419">
<rect width="607.628" height="110" fill="white"/>
</clipPath>
</defs>
</svg>
