<svg width="400" height="110" viewBox="0 0 400 110" fill="none" xmlns="http://www.w3.org/2000/svg">
<g clip-path="url(#clip0_1_7)">
<path d="M84.4836 27.3167C84.4836 19.7688 82.3358 13.2702 78.2701 8.53277C73.7929 3.31354 67.1894 0.556717 59.1647 0.556717C48.4527 0.556717 38.9213 4.38951 31.9599 7.1838C27.8033 8.85396 24.2183 10.2939 21.953 10.2939C21.4936 10.2939 21.0608 10.492 20.7616 10.8399C20.4624 11.1879 20.3289 11.6483 20.3983 12.1033C20.9166 15.6149 22.2416 19.0676 24.2451 22.1295C22.498 27.3113 19.6397 34.7413 16.3486 43.2795C10.6266 58.1342 4.13526 74.9749 1.00446 86.5643C-0.983013 93.4644 3.72767e-05 98.8656 3.90553 102.586C6.52877 105.214 12.2882 108.581 16.4768 109.93C16.6371 109.979 16.7974 110.005 16.9577 110.005C17.2942 110.005 17.6255 109.898 17.9033 109.69C18.3093 109.384 18.5498 108.897 18.5337 108.389C18.4589 105.263 20.19 96.6762 28.626 73.6741C32.4781 79.7285 37.2544 81.0078 45.589 78.6418C56.0179 75.5745 65.7896 68.6101 73.093 59.0282C80.4445 49.382 84.4889 38.1245 84.4889 27.322L84.4836 27.3167ZM37.8368 49.5426C39.0015 46.5502 40.0914 43.7612 41.0584 41.2346C43.3077 35.2981 44.2426 30.6302 41.9827 26.5458C42.9283 26.246 43.9007 25.9195 44.9051 25.5823C48.7999 24.2708 52.8283 22.9164 56.2476 22.9164C61.601 22.9164 62.7229 26.5191 62.7229 29.5435C62.7229 34.8431 58.935 41.529 52.5879 47.4281C47.1117 52.5189 40.5722 56.2874 34.5991 57.8719C35.7211 54.9706 36.8057 52.1816 37.8314 49.5426H37.8368Z" fill="white"/>
<path d="M146.667 7.45682C143.392 4.74281 137.894 1.88428 133.898 0.256951C133.412 0.0588879 132.861 0.117772 132.423 0.406837C131.985 0.695902 131.729 1.19374 131.729 1.71834C131.729 9.4428 126.712 29.6881 117.127 53.4342C110.93 68.835 103.749 84.5837 97.4823 84.5837C95.7138 84.5837 94.4743 83.1758 94.4743 81.1524C94.4743 74.9054 99.5178 62.8128 104.855 50.0083C107.997 42.4712 111.245 34.6825 113.82 27.3006C116.908 18.8802 116.176 11.9534 111.758 7.79941C108.884 5.064 104.177 2.03417 100.052 0.262304C99.5712 0.0588879 99.0209 0.101712 98.5775 0.385425C98.1394 0.669137 97.8669 1.15091 97.8562 1.67551C97.7494 6.08108 93.5287 16.6641 88.6348 28.9172C81.3581 47.1444 72.3076 69.8307 72.3076 83.936C72.3076 99.9095 80.7864 109.443 94.9872 109.443C107.468 109.443 117.806 102.554 126.594 88.3897C135.148 74.6752 143.568 53.0167 149.696 28.944C152.159 18.9445 152.453 12.2264 146.672 7.45146L146.667 7.45682Z" fill="white"/>
<path d="M197.834 45.8329C209.726 39.4199 217.217 28.9119 217.217 18.27C217.217 11.6536 214.412 0.551361 195.648 0.551361C184.958 0.551361 174.529 4.37345 166.91 7.16239C162.326 8.84325 158.362 10.2939 156.075 10.2939C155.616 10.2939 155.183 10.492 154.884 10.8399C154.585 11.1879 154.451 11.6483 154.521 12.1033C155.06 15.7487 156.455 19.3245 158.474 22.2634C156.535 27.4184 153.254 35.5818 149.792 44.2002C145.673 54.446 141.415 65.045 138.909 71.838C134.753 83.042 133.38 88.6306 137.686 95.1024C143.253 103.55 152.816 109.443 160.937 109.443C170.885 109.443 182.666 104.026 192.448 94.9526C202.717 85.4295 208.61 73.9097 208.61 63.3427C208.61 55.4791 204.41 48.8574 197.834 45.8275V45.8329ZM185.049 62.0955C185.049 66.0353 181.603 71.3188 176.062 75.8849C170.591 80.3922 163.795 83.6362 157.08 85.0012C159.377 78.6043 162.641 69.8735 165.916 61.3514C171.59 59.0496 176.442 57.8344 179.962 57.8344C183.291 57.8344 185.049 59.3065 185.049 62.0955ZM173.316 41.1168C173.813 39.6983 174.246 38.4778 174.641 37.4393C175.865 33.9598 176.767 30.2876 175.48 26.7385C176.543 26.3852 177.617 26.0052 178.664 25.6411C182.879 24.1637 187.234 22.6381 190.509 22.6381C191.973 22.6381 192.822 23.061 192.822 25.2343C192.822 29.5756 186.71 36.1438 173.145 41.604C173.204 41.4434 173.257 41.2774 173.316 41.1222V41.1168Z" fill="white"/>
<path d="M395.469 6.47184C395.469 6.47184 395.443 6.45043 395.427 6.43972C393.124 4.71068 389.379 2.30181 384.581 0.647714C384.095 0.481769 383.561 0.556711 383.144 0.861836C382.727 1.16161 382.481 1.64338 382.487 2.15728C382.62 16.2144 369.392 45.4046 358.894 54.2104C356.313 56.3677 354.71 56.5979 354.342 56.3731C354.144 56.2553 353.941 55.5647 354.224 54.2265C355.234 49.5533 357.654 43.3116 359.994 37.2787C361.741 32.7768 363.547 28.125 364.744 24.1637C366.678 17.7936 366.902 12.4833 361.682 7.25874C358.68 4.40021 354.849 1.94851 351.163 0.529946C350.698 0.353295 350.18 0.401473 349.758 0.669126C349.336 0.936779 349.068 1.38108 349.026 1.87892C348.577 7.39257 345.206 15.6845 341.476 24.5866C341.418 18.5376 339.954 11.7874 337.705 7.28015C335.45 2.76217 331.491 0.562065 325.603 0.562065C318.674 0.562065 311.509 2.04486 305.189 3.35101C298.153 4.80704 291.507 6.17742 287.467 4.94622C286.976 4.79633 286.442 4.89269 286.041 5.21387C285.635 5.5297 285.411 6.02218 285.437 6.53608C285.726 12.3495 287.291 18.0666 288.643 21.4872C278.364 46.941 271.327 65.9764 267.732 78.069C265.643 84.9851 265.856 90.1669 268.405 94.8508C268.496 95.0221 268.586 95.1774 268.677 95.3487C265.311 93.5554 260.012 85.8845 253.109 60.5645C273.78 42.3213 286.089 26.3477 286.089 17.7347C286.089 11.6643 281.585 5.7813 272.711 0.25694C272.219 -0.0481841 271.605 -0.0588902 271.103 0.224822C270.601 0.508534 270.296 1.04384 270.301 1.62197C270.424 9.48561 260.049 24.9238 242.258 43.5418C244.828 36.3633 247.088 29.6934 248.674 24.5866C250.731 17.7186 251.907 10.7436 246.66 6.23631C243.732 3.74178 240.201 1.82539 235.863 0.374708C235.382 0.214116 234.853 0.294412 234.442 0.594183C234.03 0.888601 233.784 1.37038 233.784 1.87356C233.784 7.21592 226.219 26.5619 218.9 45.2708C212.852 60.7304 206.601 76.7147 203.988 86.3127C201.707 94.4547 203.283 100.381 208.658 103.914C211.831 106.033 216.608 108.159 219.706 109.24C219.877 109.299 220.048 109.326 220.225 109.326C220.577 109.326 220.919 109.208 221.202 108.983C221.624 108.646 221.849 108.116 221.79 107.58C221.288 102.805 228.324 82.3461 233.052 69.0919C234.89 82.2176 238.363 95.3433 241.75 101.408C245.431 108.169 251.757 109.984 259.093 106.387C262.891 104.556 266.668 101.601 269.735 98.068C269.842 97.9449 269.922 97.8004 269.986 97.6505C274.565 105.3 279.288 109.047 284.374 109.047C290.064 109.047 296.817 107.527 303.341 106.055C310.27 104.492 317.434 102.875 320.058 104.16C320.581 104.417 321.206 104.363 321.677 104.015C322.147 103.673 322.392 103.095 322.307 102.516C322.152 101.414 321.981 100.306 321.794 99.2082C325.074 105.894 331.721 109.465 341.295 109.465C355.143 109.465 369.002 99.1708 378.362 81.9339C386.964 66.228 396.089 38.4457 399.215 22.3544C400.652 15.0046 400.47 10.5348 395.464 6.49325L395.469 6.47184ZM307.7 78.6043C301.663 78.6043 295.904 80.1995 290.331 81.7466C289.941 81.8536 289.556 81.9607 289.166 82.0677C290.657 77.6675 292.399 72.6892 294.194 67.7055C309.239 63.3749 318.642 61.8439 322.147 63.1607C322.633 63.3427 323.172 63.2731 323.6 62.9787C324.027 62.6843 324.278 62.1972 324.278 61.6833C324.278 57.7274 323.359 52.4064 322.088 49.0126C320.442 44.7194 317.552 42.9529 312.749 43.2741C310.633 43.3972 306.925 44.0128 302.844 44.8907C303.763 42.4979 304.703 40.2336 305.552 38.2208C307.011 34.6878 307.428 31.6901 306.808 29.2598C310.569 28.8637 314.672 28.1196 318.658 27.4023C326.982 25.9034 335.583 24.3511 339.152 26.337C339.639 26.61 340.237 26.6047 340.718 26.3156C340.745 26.2996 340.761 26.2782 340.782 26.2621C340.777 26.2835 340.766 26.2996 340.761 26.321C335.61 38.5848 330.289 51.2662 330.289 60.709C330.289 70.1518 336.054 75.9224 344.639 75.9224C350.319 75.9224 356.511 73.2512 361.907 68.7707C355.773 78.6097 348.662 83.8931 341.305 83.8931C334.429 83.8931 328.868 79.4983 327.142 72.6999C326.998 72.1217 326.538 71.6775 325.956 71.549C325.374 71.4205 324.77 71.6293 324.396 72.095C321.303 75.8957 319.459 81.7305 319.459 87.6992C319.459 88.3576 319.481 88.9946 319.518 89.6263C317.344 83.2668 313.839 78.6097 307.711 78.6097L307.7 78.6043Z" fill="white"/>
</g>
<defs>
<clipPath id="clip0_1_7">
<rect width="400" height="110" fill="white"/>
</clipPath>
</defs>
</svg>
