<svg width="548" height="110" viewBox="0 0 548 110" fill="none" xmlns="http://www.w3.org/2000/svg">
<path d="M0 13.0096V0H12.991V13.0096H0ZM0 29.1747V16.1651H12.991V29.1747H0ZM0 45.3398V32.3301H12.991V45.3398H0ZM0 61.5048V48.4952H12.991V61.5048H0ZM0 77.6699V64.6602H12.991V77.6699H0ZM0 93.8349V80.8253H12.991V93.8349H0ZM0 110V96.9904H12.991V110H0ZM16.142 13.0096V0H29.133V13.0096H16.142ZM16.142 61.5048V48.4952H29.133V61.5048H16.142ZM32.2839 13.0096V0H45.275V13.0096H32.2839ZM32.2839 61.5048V48.4952H45.275V61.5048H32.2839ZM48.4259 13.0096V0H61.4169V13.0096H48.4259ZM48.4259 61.5048V48.4952H61.4169V61.5048H48.4259ZM64.5678 29.1747V16.1651H77.5589V29.1747H64.5678ZM64.5678 45.3398V32.3301H77.5589V45.3398H64.5678Z" fill="white"/>
<path d="M93.8794 13.0096V0H106.87V13.0096H93.8794ZM93.8794 29.1747V16.1651H106.87V29.1747H93.8794ZM93.8794 45.3398V32.3301H106.87V45.3398H93.8794ZM93.8794 61.5048V48.4952H106.87V61.5048H93.8794ZM93.8794 77.6699V64.6602H106.87V77.6699H93.8794ZM93.8794 93.8349V80.8253H106.87V93.8349H93.8794ZM110.021 110V96.9904H123.012V110H110.021ZM126.163 110V96.9904H139.154V110H126.163ZM142.305 110V96.9904H155.296V110H142.305ZM158.447 13.0096V0H171.438V13.0096H158.447ZM158.447 29.1747V16.1651H171.438V29.1747H158.447ZM158.447 45.3398V32.3301H171.438V45.3398H158.447ZM158.447 61.5048V48.4952H171.438V61.5048H158.447ZM158.447 77.6699V64.6602H171.438V77.6699H158.447ZM158.447 93.8349V80.8253H171.438V93.8349H158.447Z" fill="white"/>
<path d="M187.759 13.0096V0H200.75V13.0096H187.759ZM187.759 29.1747V16.1651H200.75V29.1747H187.759ZM187.759 45.3398V32.3301H200.75V45.3398H187.759ZM187.759 61.5048V48.4952H200.75V61.5048H187.759ZM187.759 77.6699V64.6602H200.75V77.6699H187.759ZM187.759 93.8349V80.8253H200.75V93.8349H187.759ZM187.759 110V96.9904H200.75V110H187.759ZM203.9 13.0096V0H216.892V13.0096H203.9ZM203.9 61.5048V48.4952H216.892V61.5048H203.9ZM203.9 110V96.9904H216.892V110H203.9ZM220.042 13.0096V0H233.033V13.0096H220.042ZM220.042 61.5048V48.4952H233.033V61.5048H220.042ZM220.042 110V96.9904H233.033V110H220.042ZM236.184 13.0096V0H249.175V13.0096H236.184ZM236.184 61.5048V48.4952H249.175V61.5048H236.184ZM236.184 110V96.9904H249.175V110H236.184ZM252.326 29.1747V16.1651H265.317V29.1747H252.326ZM252.326 45.3398V32.3301H265.317V45.3398H252.326ZM252.326 77.6699V64.6602H265.317V77.6699H252.326ZM252.326 93.8349V80.8253H265.317V93.8349H252.326Z" fill="white"/>
<path d="M281.638 13.0096V0H294.629V13.0096H281.638ZM281.638 29.1747V16.1651H294.629V29.1747H281.638ZM281.638 45.3398V32.3301H294.629V45.3398H281.638ZM281.638 61.5048V48.4952H294.629V61.5048H281.638ZM281.638 77.6699V64.6602H294.629V77.6699H281.638ZM281.638 93.8349V80.8253H294.629V93.8349H281.638ZM281.638 110V96.9904H294.629V110H281.638ZM297.78 61.5048V48.4952H310.771V61.5048H297.78ZM313.922 45.3398V32.3301H326.913V45.3398H313.922ZM313.922 61.5048V48.4952H326.913V61.5048H313.922ZM330.064 29.1747V16.1651H343.055V29.1747H330.064ZM330.064 77.6699V64.6602H343.055V77.6699H330.064ZM346.206 13.0096V0H359.197V13.0096H346.206ZM346.206 93.8349V80.8253H359.197V93.8349H346.206ZM346.206 110V96.9904H359.197V110H346.206Z" fill="white"/>
<path d="M375.517 13.0096V0H388.508V13.0096H375.517ZM375.517 29.1747V16.1651H388.508V29.1747H375.517ZM375.517 45.3398V32.3301H388.508V45.3398H375.517ZM375.517 61.5048V48.4952H388.508V61.5048H375.517ZM375.517 77.6699V64.6602H388.508V77.6699H375.517ZM375.517 93.8349V80.8253H388.508V93.8349H375.517ZM375.517 110V96.9904H388.508V110H375.517ZM391.659 13.0096V0H404.65V13.0096H391.659ZM391.659 61.5048V48.4952H404.65V61.5048H391.659ZM391.659 110V96.9904H404.65V110H391.659ZM407.801 13.0096V0H420.792V13.0096H407.801ZM407.801 61.5048V48.4952H420.792V61.5048H407.801ZM407.801 110V96.9904H420.792V110H407.801ZM423.943 13.0096V0H436.934V13.0096H423.943ZM423.943 110V96.9904H436.934V110H423.943ZM440.085 13.0096V0H453.076V13.0096H440.085ZM440.085 110V96.9904H453.076V110H440.085Z" fill="white"/>
<path d="M469.396 13.0096V0H482.388V13.0096H469.396ZM469.396 29.1747V16.1651H482.388V29.1747H469.396ZM485.538 45.3398V32.3301H498.529V45.3398H485.538ZM501.68 61.5048V48.4952H514.671V61.5048H501.68ZM501.68 77.6699V64.6602H514.671V77.6699H501.68ZM501.68 93.8349V80.8253H514.671V93.8349H501.68ZM501.68 110V96.9904H514.671V110H501.68ZM517.822 45.3398V32.3301H530.813V45.3398H517.822ZM533.964 13.0096V0H546.955V13.0096H533.964ZM533.964 29.1747V16.1651H546.955V29.1747H533.964Z" fill="white"/>
</svg>
